<svg width="200" height="254" viewBox="0 0 200 254" fill="none" xmlns="http://www.w3.org/2000/svg">
<path d="M79.6595 72.1161C79.6595 59.8037 89.9224 55.0607 106.378 55.0607C130.339 55.0607 160.749 62.4004 184.711 75.3222V1.19182C158.603 -9.23918 132.495 55.0607 106.378 55.0607C42.5103 55.0607 0 20.1285 0 75.8786C0 163.045 119.678 148.913 119.678 186.504C119.678 201.079 107.041 205.769 89.4815 205.769C63.4254 205.769 29.7475 195.002 3.31213 180.648V251.582C30.5093 263.315 59.8604 205.703 89.4815 205.769C154.955 205.769 200 241.309 200 184.676C200 90.7259 79.6595 107.56 79.6595 72.1161Z" fill="#067A46"/>
</svg>
